<svg width="20" height="20" viewBox="0 0 20 20" fill="none" xmlns="http://www.w3.org/2000/svg">
<g clip-path="url(#clip0_29_3784)">
<path d="M19.9905 10.2272C19.9905 9.51812 19.9255 8.83629 19.805 8.18176H10.1992V12.0545H15.6882C15.4472 13.2999 14.7239 14.3545 13.6391 15.0636V17.5818H16.9492C18.8778 15.8363 19.9905 13.2727 19.9905 10.2272Z" fill="#4285F4"/>
<path d="M10.1989 20C12.9526 20 15.2614 19.1091 16.9489 17.5818L13.6388 15.0636C12.7301 15.6636 11.5711 16.0272 10.1989 16.0272C7.54707 16.0272 5.29397 14.2727 4.4873 11.9091H1.09375V14.4909C2.77198 17.7545 6.2119 20 10.1989 20Z" fill="#34A853"/>
<path d="M4.48765 11.9C4.28367 11.3 4.16313 10.6637 4.16313 10C4.16313 9.33637 4.28367 8.70001 4.48765 8.10001V5.51819H1.0941C0.398696 6.86366 0 8.38183 0 10C0 11.6182 0.398696 13.1364 1.0941 14.4818L3.73663 12.4637L4.48765 11.9Z" fill="#FBBC05"/>
<path d="M10.1989 3.98182C11.7009 3.98182 13.0361 4.49091 14.1024 5.47273L17.0231 2.60909C15.2521 0.990909 12.9526 0 10.1989 0C6.2119 0 2.77198 2.24546 1.09375 5.51818L4.4873 8.1C5.29397 5.73635 7.54706 3.98182 10.1989 3.98182Z" fill="#EA4335"/>
</g>
<defs>
<clipPath id="clip0_29_3784">
<rect width="20" height="20" fill="white"/>
</clipPath>
</defs>
</svg>
